<svg height="512pt" viewBox="0 0 512 512" width="512pt" xmlns="http://www.w3.org/2000/svg"><path d="m472 332v-212c0-22.054688-17.945312-40-40-40h-26v20c0 11.046875-8.953125 20-20 20s-20-8.953125-20-20v-20h-91v20c0 11.046875-8.953125 20-20 20s-20-8.953125-20-20v-20h-90v20c0 11.046875-8.953125 20-20 20s-20-8.953125-20-20v-20h-25c-22.054688 0-40 17.945312-40 40v30h372c11.046875 0 20 8.953125 20 20s-8.953125 20-20 20h-372v242c0 22.054688 17.945312 40 40 40h352c22.054688 0 40-17.945312 40-40 0-11.046875 8.953125-20 20-20s20 8.953125 20 20c0 44.113281-35.886719 80-80 80h-352c-44.113281 0-80-35.886719-80-80v-312c0-44.113281 35.886719-80 80-80h25v-20c0-11.046875 8.953125-20 20-20s20 8.953125 20 20v20h90v-20c0-11.046875 8.953125-20 20-20s20 8.953125 20 20v20h91v-20c0-11.046875 8.953125-20 20-20s20 8.953125 20 20v20h26c44.113281 0 80 35.886719 80 80v212c0 11.046875-8.953125 20-20 20s-20-8.953125-20-20zm-116 100c11.046875 0 20-8.953125 20-20v-164c0-7.632812-4.34375-14.601562-11.195312-17.957031-6.855469-3.359375-15.023438-2.527344-21.054688 2.148437l-40 31c-8.730469 6.765625-10.324219 19.328125-3.558594 28.0625 6.765625 8.726563 19.328125 10.320313 28.0625 3.554688l7.746094-6.003906v123.195312c0 11.046875 8.953125 20 20 20zm-166.527344-204c-.179687 0-.351562.023438-.527344.027344-.175781-.003906-.347656-.027344-.523437-.027344-23.335937 0-44.0625 11.03125-55.449219 29.507812-5.792968 9.402344-2.867187 21.726563 6.539063 27.519532 3.269531 2.015625 6.890625 2.976562 10.472656 2.976562 6.710937 0 13.265625-3.378906 17.042969-9.511718 3.988281-6.472657 12.183594-10.492188 21.394531-10.492188.175781 0 .347656-.023438.523437-.027344.175782.003906.347657.027344.523438.027344 13.296875 0 24.53125 11.140625 24.53125 24.324219 0 7.550781-10.054688 15.511719-16.386719 19.171875-8.933593 2.003906-15.613281 9.96875-15.613281 19.503906 0 9.640625 6.820312 17.683594 15.902344 19.574219l-.1875.050781c.160156.066406 16.285156 6.980469 16.285156 16.835938 0 13.410156-10.910156 24.324218-24.324219 24.324218-.839843 0-1.664062.066406-2.480469.167969-7.808593-.46875-15.785156-5.34375-20.160156-12.445313-5.796875-9.40625-18.121094-12.328124-27.519531-6.535156-9.40625 5.792969-12.332031 18.117188-6.535156 27.519532 11.972656 19.433593 33.214843 31.507812 55.441406 31.507812 1.050781 0 2.074219-.105469 3.085937-.261719 34.621094-.976562 62.492188-29.425781 62.492188-64.277343 0-15.648438-7.109375-28.042969-16.117188-37.179688 8.636719-9.195312 16.117188-21.804688 16.117188-37.957031 0-35.46875-28.945312-64.324219-64.527344-64.324219zm0 0"/></svg>