<svg height="368.64pt" viewBox="0 0 368.64 368.64" width="368.64pt" xmlns="http://www.w3.org/2000/svg"><path d="m38.167969 361.8125h292.300781c17.3125 0 31.34375-14.03125 31.34375-31.34375v-292.300781c0-17.308594-14.03125-31.339844-31.34375-31.339844h-292.300781c-17.308594 0-31.339844 14.03125-31.339844 31.339844v292.300781c0 17.3125 14.03125 31.34375 31.339844 31.34375zm0 0" fill="#d7e9ff"/><path d="m330.472656 368.640625h-292.300781c-21.046875 0-38.171875-17.125-38.171875-38.171875v-292.300781c0-21.046875 17.121094-38.167969 38.167969-38.167969h292.300781c21.042969 0 38.171875 17.121094 38.171875 38.167969v292.300781c0 21.046875-17.121094 38.171875-38.167969 38.171875zm-292.304687-354.988281c-13.515625 0-24.515625 11-24.515625 24.515625v292.300781c0 13.519531 11 24.519531 24.519531 24.519531h292.300781c13.515625 0 24.515625-11 24.515625-24.519531v-292.300781c0-13.515625-11-24.515625-24.519531-24.515625zm0 0" fill="#0e65e5"/><path d="m34.132812 136.535156c-3.773437 0-6.824218-3.054687-6.824218-6.824218v-81.195313c0-11.695313 9.511718-21.207031 21.210937-21.207031h81.1875c3.773438 0 6.828125 3.054687 6.828125 6.824218 0 3.769532-3.054687 6.828126-6.828125 6.828126h-81.1875c-4.167969 0-7.558593 3.386718-7.558593 7.554687v81.195313c0 3.769531-3.054688 6.824218-6.828126 6.824218zm0 0" fill="#fff"/><g fill="#0e65e5"><path d="m245.761719 314.027344c-3.773438 0-6.828125-3.058594-6.828125-6.828125v-27.304688c0-3.769531 3.054687-6.828125 6.828125-6.828125 3.773437 0 6.824219 3.058594 6.824219 6.828125v27.304688c0 3.769531-3.050782 6.828125-6.824219 6.828125zm0 0"/><path d="m259.414062 300.375h-27.308593c-3.773438 0-6.824219-3.058594-6.824219-6.828125s3.050781-6.828125 6.824219-6.828125h27.308593c3.773438 0 6.824219 3.058594 6.824219 6.828125s-3.050781 6.828125-6.824219 6.828125zm0 0"/><path d="m330.46875 334.507812h-292.300781c-17.308594 0-31.339844-14.035156-31.339844-31.34375v27.304688c0 17.3125 14.03125 31.34375 31.339844 31.34375h292.300781c17.3125 0 31.34375-14.03125 31.34375-31.34375v-27.304688c0 17.308594-14.03125 31.34375-31.34375 31.34375zm0 0"/><path d="m330.46875 368.640625h-292.296875c-21.046875 0-38.171875-17.125-38.171875-38.171875v-27.304688h13.652344c0 13.519532 11 24.515626 24.519531 24.515626h292.296875c13.519531 0 24.519531-10.996094 24.519531-24.515626h13.652344v27.304688c0 21.046875-17.128906 38.171875-38.171875 38.171875zm-316.734375-36.175781c1.019531 12.589844 11.59375 22.523437 24.4375 22.523437h292.296875c12.84375 0 23.417969-9.933593 24.4375-22.523437-6.625 5.535156-15.152344 8.867187-24.4375 8.867187h-292.296875c-9.285156 0-17.8125-3.332031-24.4375-8.867187zm0 0"/></g><path d="m184.320312 227.808594-62.582031-48.28125 62.582031-51.175782v-53.257812l-129.707031 104.433594 129.707031 100.367187zm0 0" fill="#5c9eff"/><path d="m184.320312 286.71875c-1.488281 0-2.960937-.480469-4.179687-1.425781l-129.707031-100.367188c-1.652344-1.28125-2.625-3.246093-2.648438-5.332031-.019531-2.09375.921875-4.074219 2.546875-5.382812l129.707031-104.433594c2.039063-1.648438 4.855469-1.972656 7.226563-.839844 2.375 1.132812 3.882813 3.527344 3.882813 6.15625v53.257812c0 2.046876-.921876 3.988282-2.507813 5.285157l-55.933594 45.734375 55.78125 43.03125c1.679688 1.292968 2.660157 3.289062 2.660157 5.40625v52.085937c0 2.601563-1.480469 4.980469-3.820313 6.128907-.953125.464843-1.980469.695312-3.007813.695312zm-118.6875-107.296875 111.859376 86.558594v-34.816407l-59.925782-46.230468c-1.652344-1.273438-2.625-3.226563-2.660156-5.308594-.027344-2.082031.894531-4.0625 2.507812-5.382812l60.078126-49.125v-35.761719zm0 0" fill="#0e65e5"/><path d="m293.546875 227.808594-62.582031-48.28125 62.582031-51.175782v-53.257812l-129.707031 104.433594 129.707031 100.367187zm0 0" fill="#94c1ff" fill-rule="evenodd"/><path d="m293.546875 286.71875c-1.488281 0-2.960937-.480469-4.179687-1.425781l-129.707032-100.367188c-1.652344-1.28125-2.625-3.246093-2.648437-5.332031-.019531-2.09375.921875-4.074219 2.546875-5.382812l129.707031-104.433594c2.039063-1.648438 4.855469-1.972656 7.226563-.839844 2.375 1.132812 3.882812 3.527344 3.882812 6.15625v53.257812c0 2.046876-.921875 3.988282-2.507812 5.285157l-55.933594 45.734375 55.78125 43.03125c1.679687 1.292968 2.660156 3.289062 2.660156 5.40625v52.085937c0 2.601563-1.480469 4.980469-3.820312 6.128907-.953126.464843-1.980469.695312-3.007813.695312zm-118.6875-107.296875 111.859375 86.558594v-34.816407l-59.925781-46.230468c-1.652344-1.273438-2.625-3.226563-2.660157-5.308594-.027343-2.082031.894532-4.0625 2.507813-5.382812l60.078125-49.125v-35.761719zm0 0" fill="#0e65e5"/></svg>